<svg xmlns="http://www.w3.org/2000/svg" viewBox="0 0 512 512" width="512" height="512">
  <defs>
    <linearGradient id="forkGrad" x1="0%" y1="0%" x2="100%" y2="100%">
      <stop offset="0%" stop-color="#22CCAA"/>
      <stop offset="100%" stop-color="#17A68A"/>
    </linearGradient>
    <radialGradient id="bgGrad" cx="50%" cy="50%" r="50%">
      <stop offset="0%" stop-color="#ffffff"/>
      <stop offset="100%" stop-color="#f0faf8"/>
    </radialGradient>
  </defs>

  <!-- Background circle -->
  <circle cx="256" cy="256" r="245" fill="url(#bgGrad)" stroke="#1DB9A0" stroke-width="6"/>

  <!-- Crossed forks centered, scaled up from logo version -->
  <g transform="translate(256, 265) scale(1.7)">
    <!-- Left fork -->
    <g transform="rotate(-35)" fill="url(#forkGrad)">
      <path d="M-5,38 C-6,68 -5.5,100 -4.5,125 C-3.5,131 3.5,131 4.5,125 C5.5,100 6,68 5,38 Z"/>
      <path d="M-5,38 C-6,30 -8,22 -11,14 L-11,-2 C-6,-7 6,-7 11,-2 L11,14 C8,22 6,30 5,38 Z"/>
      <path d="M-11,-2 C-12,-28 -14.5,-58 -16,-82 C-16.5,-90 -11,-90 -10,-82 C-9,-58 -7.5,-28 -7,-2 Z"/>
      <path d="M-6,-3 C-6,-30 -6.5,-60 -6.5,-84 C-6.5,-92 -1,-92 -1,-84 C-1,-60 -1,-30 -1,-3 Z"/>
      <path d="M1,-3 C1,-30 1,-60 1,-84 C1,-92 6.5,-92 6.5,-84 C6.5,-60 6,-30 6,-3 Z"/>
      <path d="M7,-2 C7.5,-28 9,-58 10,-82 C11,-90 16.5,-90 16,-82 C14.5,-58 12,-28 11,-2 Z"/>
    </g>

    <!-- Right fork -->
    <g transform="rotate(35)" fill="url(#forkGrad)">
      <path d="M-5,38 C-6,68 -5.5,100 -4.5,125 C-3.5,131 3.5,131 4.5,125 C5.5,100 6,68 5,38 Z"/>
      <path d="M-5,38 C-6,30 -8,22 -11,14 L-11,-2 C-6,-7 6,-7 11,-2 L11,14 C8,22 6,30 5,38 Z"/>
      <path d="M-11,-2 C-12,-28 -14.5,-58 -16,-82 C-16.5,-90 -11,-90 -10,-82 C-9,-58 -7.5,-28 -7,-2 Z"/>
      <path d="M-6,-3 C-6,-30 -6.5,-60 -6.5,-84 C-6.5,-92 -1,-92 -1,-84 C-1,-60 -1,-30 -1,-3 Z"/>
      <path d="M1,-3 C1,-30 1,-60 1,-84 C1,-92 6.5,-92 6.5,-84 C6.5,-60 6,-30 6,-3 Z"/>
      <path d="M7,-2 C7.5,-28 9,-58 10,-82 C11,-90 16.5,-90 16,-82 C14.5,-58 12,-28 11,-2 Z"/>
    </g>
  </g>
</svg>
